<svg viewBox="0 0 170 48" fill="none" xmlns="http://www.w3.org/2000/svg">
<g clip-path="url(#clip0_4965_17654)">
<path d="M22.1779 11.6016C22.1779 11.6625 22.1927 11.7116 22.2021 11.7764C22.3326 12.1894 22.6927 12.4532 23.1262 12.4532C23.5603 12.4532 23.9278 12.1678 24.0508 11.7744C24.0794 11.6831 24.0948 11.586 24.0948 11.4853C24.0948 11.4853 24.0786 10.9355 24.0948 10.5839C24.2258 7.73274 25.437 5.69478 27.123 3.93134C29.1445 1.81705 31.9939 0.5 35.1512 0.5C41.2825 0.5 46.253 5.46697 46.253 11.594C46.253 15.0627 44.66 18.1595 42.1653 20.1938C40.4428 21.5984 38.317 22.4965 35.9623 22.6608H35.2781C35.1998 22.6608 35.1236 22.6701 35.0507 22.6876C34.6532 22.7832 34.3512 23.1237 34.3135 23.5404C34.2828 23.5406 34.2522 23.5408 34.2214 23.5408C34.2521 23.5408 34.2828 23.5409 34.3134 23.5411C34.3108 23.57 34.3095 23.5992 34.3095 23.6287C34.3095 24.0788 34.6169 24.4571 35.0333 24.5655C35.1115 24.5859 35.1936 24.5967 35.2781 24.5967C35.2781 24.5967 35.7171 24.5866 35.9981 24.5967C38.9444 24.7028 41.0717 25.9417 42.881 27.6959C44.9606 29.7121 46.253 32.5347 46.253 35.6589C46.253 41.786 41.2825 46.753 35.1512 46.753C31.609 46.753 28.4542 45.0952 26.4215 42.5136C25.1313 40.8751 24.2091 39.1229 24.0948 36.6691C24.0785 36.3192 24.0948 35.7722 24.0948 35.7722C24.0948 35.6714 24.0794 35.5742 24.0508 35.4828C23.9278 35.09 23.561 34.8049 23.1275 34.8043C23.1266 34.7457 23.1262 34.6871 23.1262 34.6283C23.1262 34.6871 23.1257 34.7457 23.1248 34.8043C22.692 34.8049 22.3258 35.0891 22.2022 35.4809C22.1732 35.5728 22.1575 35.6707 22.1575 35.7722C22.1575 35.7722 22.1741 36.3236 22.1575 36.6762C22.0424 39.1259 21.1213 40.8745 19.8337 42.5108C17.8011 45.094 14.6453 46.753 11.1018 46.753C4.97044 46.753 0 41.786 0 35.6589C0 32.5362 1.29113 29.7147 3.36905 27.6987C5.17867 25.9429 7.30713 24.7028 10.2549 24.5967C10.5356 24.5866 10.9742 24.5967 10.9742 24.5967C11.0588 24.5967 11.1408 24.5859 11.219 24.5655C11.6355 24.4571 11.9428 24.0788 11.9428 23.6287C11.9428 23.5992 11.9415 23.57 11.9389 23.5411C11.9695 23.5409 12.0002 23.5408 12.0309 23.5408C12.0002 23.5408 11.9695 23.5406 11.9389 23.5404C11.9011 23.1237 11.5991 22.7832 11.2017 22.6876C11.1287 22.6701 11.0525 22.6608 10.9742 22.6608C10.9742 22.6608 10.5736 22.6693 10.3171 22.6608C7.70024 22.5742 5.80751 21.5973 4.08455 20.1913C1.59162 18.1569 0 15.0612 0 11.594C0 5.46697 4.97044 0.5 11.1018 0.5C14.2604 0.5 17.1109 1.81814 19.1325 3.93397C20.8155 5.69546 21.924 8.00983 22.1575 10.5768C22.1848 10.8763 22.1749 11.2956 22.1779 11.6016Z" fill="#1C63EC"/>
<path d="M75.9037 12.3332H70.997L65.621 19.8425L60.3303 12.3332H55.0823L62.9757 23.5546L54.5703 35.2879H59.5623L65.4077 27.0106L71.253 35.2879H76.5437L68.053 23.2986L75.9037 12.3332Z" fill="black"/>
<path d="M92.1021 26.0292C92.1021 30.5946 89.2008 32.4293 85.5741 32.4293C82.8434 32.4293 81.2221 31.1066 81.2221 29.0159C81.2221 26.0719 84.9767 25.0479 92.1021 24.3652V26.0292ZM84.5927 35.8426C88.3474 35.8426 90.9074 34.6053 92.2728 32.2586C92.4008 33.7519 92.4861 34.3919 92.6568 35.2879H96.9235C96.4968 33.2399 96.2835 30.4666 96.2835 27.0106C96.2835 26.0292 96.3688 22.0612 96.3688 21.5065C96.4114 14.6372 93.0408 11.7785 87.1101 11.7785C81.8621 11.7785 77.8087 14.6799 77.4674 19.5865H81.9474C82.1181 16.7279 83.8674 15.1919 86.9394 15.1919C89.7554 15.1919 91.8888 16.5572 91.8888 20.6105V21.0799C83.0141 21.9759 76.4007 23.5119 76.4007 29.1012C76.4007 33.2826 79.9421 35.8426 84.5927 35.8426Z" fill="black"/>
<path d="M110.809 9.51718C115.674 9.51718 117.423 7.08517 117.764 4.35449H114.436C114.266 5.84783 113.242 6.82917 110.852 6.82917C108.463 6.82917 107.524 5.84783 107.353 4.35449H103.983C104.196 7.08517 106.116 9.51718 110.809 9.51718ZM104.921 35.2879L116.143 18.7332V35.2879H120.495V12.3332H116.143L104.921 28.9306V12.3332H100.569V35.2879H104.921Z" fill="black"/>
<path d="M134.882 32.0453C131.255 32.0453 128.652 29.4426 128.183 25.1759H145.676C146.146 17.7092 142.007 11.9065 134.924 11.9065C128.396 11.9065 123.618 16.6425 123.618 23.7679C123.618 30.4239 127.671 35.8426 135.052 35.8426C140.855 35.8426 144.354 32.3439 145.378 28.5466H140.898C139.916 30.7226 138.124 32.0453 134.882 32.0453ZM134.882 15.5332C138.508 15.5332 140.94 18.3065 141.068 21.6772H128.268C128.908 17.2825 131.426 15.5332 134.882 15.5332Z" fill="black"/>
<path d="M148.578 12.3332V42.7546H153.015V32.0453C154.423 34.4346 156.77 35.8426 160.183 35.8426C165.517 35.8426 170.082 31.3626 170.082 23.8532C170.082 16.3439 165.517 11.9065 160.183 11.9065C156.77 11.9065 154.423 13.3145 153.015 15.7039V12.3332H148.578ZM152.845 23.8532C152.845 18.1785 155.746 15.6185 159.159 15.6185C162.871 15.6185 165.346 18.6905 165.346 23.8532C165.346 29.0159 162.871 32.1306 159.159 32.1306C155.746 32.1306 152.845 29.5279 152.845 23.8532Z" fill="black"/>
</g>
<defs>
<clipPath id="clip0_4965_17654">
<rect width="170" height="47" fill="white" transform="translate(0 0.5)"/>
</clipPath>
</defs>
</svg>
