<svg viewBox="0 0 228 228" fill="none" xmlns="http://www.w3.org/2000/svg">
<path d="M109.324 54.7243C109.324 55.0245 109.397 55.2664 109.443 55.586C110.087 57.6221 111.862 58.9224 113.998 58.9224C116.139 58.9224 117.95 57.5153 118.556 55.5764C118.697 55.1262 118.773 54.6474 118.773 54.1509C118.773 54.1509 118.694 51.4409 118.773 49.7075C119.419 35.6531 125.39 25.6072 133.701 16.9145C143.665 6.49226 157.711 0 173.275 0C203.499 0 228 24.4842 228 54.6871C228 71.7854 220.148 87.0509 207.85 97.079C199.359 104.003 188.88 108.43 177.273 109.24H173.9C173.514 109.24 173.139 109.285 172.779 109.372C170.82 109.843 169.331 111.521 169.145 113.576C168.994 113.577 168.843 113.577 168.692 113.577C168.843 113.577 168.994 113.578 169.145 113.579C169.132 113.721 169.126 113.866 169.126 114.011C169.126 116.23 170.641 118.095 172.694 118.629C173.079 118.729 173.484 118.783 173.9 118.783C173.9 118.783 176.064 118.733 177.449 118.783C191.973 119.306 202.46 125.413 211.378 134.06C221.63 143.999 228 157.912 228 173.313C228 203.516 203.499 228 173.275 228C155.814 228 140.262 219.828 130.242 207.103C123.882 199.025 119.337 190.388 118.773 178.293C118.693 176.568 118.773 173.871 118.773 173.871C118.773 173.374 118.697 172.895 118.556 172.445C117.95 170.508 116.142 169.103 114.005 169.1C114.001 168.811 113.998 168.522 113.998 168.232C113.998 168.522 113.996 168.811 113.992 169.1C111.858 169.103 110.053 170.504 109.444 172.435C109.301 172.888 109.224 173.371 109.224 173.871C109.224 173.871 109.305 176.589 109.224 178.327C108.656 190.403 104.116 199.022 97.7687 207.088C87.749 219.822 72.1928 228 54.7253 228C24.5014 228 0 203.516 0 173.313C0 157.919 6.36453 144.012 16.6074 134.073C25.5278 125.419 36.0198 119.305 50.5508 118.783C51.9345 118.733 54.0963 118.783 54.0963 118.783C54.5133 118.783 54.9178 118.729 55.3033 118.629C57.356 118.095 58.8711 116.23 58.8711 114.011C58.8711 113.866 58.8646 113.721 58.8518 113.579C59.0028 113.578 59.154 113.577 59.3052 113.577C59.1538 113.577 59.0026 113.577 58.8515 113.576C58.6655 111.522 57.1768 109.843 55.2177 109.372C54.858 109.285 54.4825 109.24 54.0963 109.24C54.0963 109.24 52.1216 109.281 50.8574 109.24C37.9577 108.813 28.6276 103.997 20.1344 97.0664C7.84574 87.038 0 71.7782 0 54.6871C0 24.4842 24.5014 0 54.7253 0C70.2952 0 84.3464 6.49765 94.3117 16.9275C102.608 25.6106 108.073 37.019 109.224 49.6726C109.358 51.1492 109.309 53.2162 109.324 54.7243Z" fill="#1C63EC"/>
</svg>
