<svg viewBox="0 0 838 228" fill="none" xmlns="http://www.w3.org/2000/svg">
<g clip-path="url(#clip0_312_8)">
<path d="M109.324 54.7243C109.324 55.0245 109.397 55.2664 109.443 55.586C110.087 57.6221 111.862 58.9224 113.998 58.9224C116.139 58.9224 117.95 57.5153 118.556 55.5764C118.697 55.1262 118.773 54.6474 118.773 54.1509C118.773 54.1509 118.694 51.4409 118.773 49.7075C119.419 35.6531 125.39 25.6072 133.701 16.9145C143.665 6.49226 157.711 0 173.275 0C203.499 0 228 24.4842 228 54.6871C228 71.7854 220.148 87.0509 207.85 97.079C199.359 104.003 188.88 108.43 177.273 109.24H173.9C173.514 109.24 173.139 109.285 172.779 109.372C170.82 109.843 169.331 111.521 169.145 113.576C168.994 113.577 168.843 113.577 168.692 113.577C168.843 113.577 168.994 113.578 169.145 113.579C169.132 113.721 169.126 113.866 169.126 114.011C169.126 116.23 170.641 118.095 172.694 118.629C173.079 118.729 173.484 118.783 173.9 118.783C173.9 118.783 176.064 118.733 177.449 118.783C191.973 119.306 202.46 125.413 211.378 134.06C221.63 143.999 228 157.912 228 173.313C228 203.516 203.499 228 173.275 228C155.814 228 140.262 219.828 130.242 207.103C123.882 199.025 119.337 190.388 118.773 178.293C118.693 176.568 118.773 173.871 118.773 173.871C118.773 173.374 118.697 172.895 118.556 172.445C117.95 170.508 116.142 169.103 114.005 169.1C114.001 168.811 113.998 168.522 113.998 168.232C113.998 168.522 113.996 168.811 113.992 169.1C111.858 169.103 110.053 170.504 109.444 172.435C109.301 172.888 109.224 173.371 109.224 173.871C109.224 173.871 109.305 176.589 109.224 178.327C108.656 190.403 104.116 199.022 97.7687 207.088C87.749 219.822 72.1928 228 54.7253 228C24.5014 228 0 203.516 0 173.313C0 157.919 6.36453 144.012 16.6074 134.073C25.5278 125.419 36.0198 119.305 50.5508 118.783C51.9345 118.733 54.0963 118.783 54.0963 118.783C54.5133 118.783 54.9178 118.729 55.3033 118.629C57.356 118.095 58.8711 116.23 58.8711 114.011C58.8711 113.866 58.8646 113.721 58.8518 113.579C59.0028 113.578 59.154 113.577 59.3052 113.577C59.1538 113.577 59.0026 113.577 58.8515 113.576C58.6655 111.522 57.1768 109.843 55.2177 109.372C54.858 109.285 54.4825 109.24 54.0963 109.24C54.0963 109.24 52.1216 109.281 50.8574 109.24C37.9577 108.813 28.6276 103.997 20.1344 97.0664C7.84574 87.038 0 71.7782 0 54.6871C0 24.4842 24.5014 0 54.7253 0C70.2952 0 84.3464 6.49765 94.3117 16.9275C102.608 25.6106 108.073 37.019 109.224 49.6726C109.358 51.1492 109.309 53.2162 109.324 54.7243Z" fill="#1C63EC"/>
<path d="M374.161 58.3303H349.974L323.473 95.347L297.394 58.3303H271.524L310.433 113.645L269 171.484H293.608L322.422 130.681L351.236 171.484H377.316L335.462 112.383L374.161 58.3303Z" fill="black"/>
<path d="M454.01 125.844C454.01 148.348 439.708 157.392 421.83 157.392C408.37 157.392 400.377 150.872 400.377 140.566C400.377 126.054 418.886 121.006 454.01 117.641V125.844ZM416.993 174.218C435.501 174.218 448.121 168.118 454.851 156.551C455.482 163.912 455.903 167.067 456.744 171.484H477.776C475.673 161.388 474.621 147.717 474.621 130.681C474.621 125.844 475.042 106.284 475.042 103.55C475.252 69.6877 458.637 55.5961 429.402 55.5961C403.532 55.5961 383.552 69.898 381.869 94.0851H403.953C404.794 79.9935 413.417 72.4219 428.561 72.4219C442.442 72.4219 452.958 79.1522 452.958 99.1328V101.446C409.211 105.863 376.611 113.435 376.611 140.987C376.611 161.599 394.068 174.218 416.993 174.218Z" fill="black"/>
<path d="M546.226 44.449C570.203 44.449 578.826 32.4606 580.509 19H564.103C563.262 26.3613 558.214 31.1987 546.436 31.1987C534.658 31.1987 530.031 26.3613 529.19 19H512.575C513.626 32.4606 523.091 44.449 546.226 44.449ZM517.202 171.484L572.516 89.8786V171.484H593.969V58.3303H572.516L517.202 140.146V58.3303H495.749V171.484H517.202Z" fill="black"/>
<path d="M664.887 155.499C647.01 155.499 634.18 142.669 631.867 121.637H718.099C720.412 84.8309 700.011 56.227 665.098 56.227C632.918 56.227 609.362 79.5728 609.362 114.697C609.362 147.507 629.343 174.218 665.729 174.218C694.332 174.218 711.579 156.971 716.627 138.253H694.543C689.705 148.979 680.872 155.499 664.887 155.499ZM664.887 74.1044C682.765 74.1044 694.753 87.7754 695.384 104.391H632.287C635.442 82.7277 647.851 74.1044 664.887 74.1044Z" fill="black"/>
<path d="M732.402 58.3303V208.29H754.276V155.499C761.217 167.277 772.784 174.218 789.61 174.218C815.9 174.218 838.405 152.134 838.405 115.117C838.405 78.1006 815.9 56.227 789.61 56.227C772.784 56.227 761.217 63.1677 754.276 74.9457V58.3303H732.402ZM753.435 115.117C753.435 87.1444 767.737 74.5251 784.562 74.5251C802.86 74.5251 815.059 89.6683 815.059 115.117C815.059 140.566 802.86 155.92 784.562 155.92C767.737 155.92 753.435 143.09 753.435 115.117Z" fill="black"/>
</g>
<defs>
<clipPath id="clip0_312_8">
<rect width="838" height="228" fill="white"/>
</clipPath>
</defs>
</svg>
