<svg width="32" height="32" viewBox="0 0 32 32" fill="none" xmlns="http://www.w3.org/2000/svg">
<rect width="32" height="32" rx="16" fill="#1C63EC"/>
<path d="M15.9976 11.3821C13.4422 11.3821 11.3798 13.4445 11.3798 16C11.3798 18.5555 13.4422 20.6179 15.9976 20.6179C18.553 20.6179 20.6154 18.5555 20.6154 16C20.6154 13.4445 18.553 11.3821 15.9976 11.3821ZM15.9976 19.0013C14.345 19.0013 12.9964 17.6526 12.9964 16C12.9964 14.3474 14.345 12.9987 15.9976 12.9987C17.6502 12.9987 18.9988 14.3474 18.9988 16C18.9988 17.6526 17.6502 19.0013 15.9976 19.0013ZM24.999 16C24.999 14.7572 25.0103 13.5256 24.9405 12.285C24.8707 10.844 24.5419 9.56515 23.4883 8.51144C22.4323 7.45548 21.1557 7.12901 19.7148 7.05921C18.472 6.98941 17.2404 7.00067 15.9998 7.00067C14.757 7.00067 13.5255 6.98941 12.2849 7.05921C10.8439 7.12901 9.5651 7.45773 8.51141 8.51144C7.45547 9.5674 7.129 10.844 7.05921 12.285C6.98941 13.5278 7.00067 14.7594 7.00067 16C7.00067 17.2406 6.98941 18.4744 7.05921 19.715C7.129 21.156 7.45772 22.4348 8.51141 23.4886C9.56736 24.5445 10.8439 24.871 12.2849 24.9408C13.5277 25.0106 14.7593 24.9993 15.9998 24.9993C17.2426 24.9993 18.4742 25.0106 19.7148 24.9408C21.1557 24.871 22.4346 24.5423 23.4883 23.4886C24.5442 22.4326 24.8707 21.156 24.9405 19.715C25.0125 18.4744 24.999 17.2428 24.999 16ZM23.0177 21.3091C22.8533 21.7189 22.6552 22.0251 22.3377 22.3403C22.0203 22.6577 21.7163 22.8559 21.3066 23.0202C20.1223 23.4908 17.3102 23.385 15.9976 23.385C14.685 23.385 11.8706 23.4908 10.6863 23.0225C10.2766 22.8581 9.97037 22.66 9.65516 22.3425C9.33771 22.0251 9.13958 21.7211 8.97522 21.3113C8.50691 20.1248 8.61273 17.3126 8.61273 16C8.61273 14.6874 8.50691 11.873 8.97522 10.6887C9.13958 10.2789 9.33771 9.97268 9.65516 9.65746C9.97262 9.34225 10.2766 9.14187 10.6863 8.97751C11.8706 8.50919 14.685 8.61501 15.9976 8.61501C17.3102 8.61501 20.1245 8.50919 21.3088 8.97751C21.7186 9.14187 22.0248 9.34 22.34 9.65746C22.6575 9.97493 22.8556 10.2789 23.0199 10.6887C23.4883 11.873 23.3824 14.6874 23.3824 16C23.3824 17.3126 23.4883 20.1248 23.0177 21.3091Z" fill="white"/>
<path fill-rule="evenodd" clip-rule="evenodd" d="M22.3381 22.3407C22.6556 22.0255 22.8537 21.7193 23.0181 21.3095C23.1131 21.0703 23.1847 20.7647 23.2383 20.4184L24.9409 19.7154C25.0031 18.6441 25.0015 17.5796 24.9999 16.5087C24.9996 16.3394 24.9994 16.17 24.9994 16.0004L24.9994 15.9306L25.2247 15.5464C25.2246 15.6977 25.2244 15.8491 25.2244 16.0004C25.2244 16.1694 25.2246 16.3384 25.2249 16.5075C25.2265 17.5776 25.2281 18.6491 25.1655 19.7272C25.0943 21.196 24.759 22.5368 23.6478 23.6481C22.5388 24.757 21.1958 25.0946 19.7269 25.1659L19.7152 24.9412L20.7474 23.1811C20.9583 23.137 21.1474 23.084 21.307 23.0206C21.7167 22.8563 22.0207 22.6581 22.3381 22.3407ZM16.0529 23.3854C16.2237 23.3858 16.4178 23.3877 16.6287 23.3897C17.8408 23.4015 19.6115 23.4188 20.7474 23.1811L20.9042 22.9138C20.8513 22.9275 20.7963 22.9405 20.7394 22.9529C20.1892 23.0725 19.4578 23.1302 18.6934 23.1546C17.9675 23.1777 17.2367 23.1706 16.6362 23.1648L16.5884 23.1643L16.0529 23.3854ZM12.6482 24.7913L16.0529 23.3854L15.998 23.3854C15.8137 23.3854 15.5998 23.3875 15.365 23.3898C14.9705 23.3936 14.5169 23.398 14.0454 23.3941L14.2691 23.1704C13.9537 23.1694 13.627 23.1652 13.3013 23.1549C12.2816 23.1227 11.3205 23.0314 10.7699 22.8138C10.3877 22.6604 10.1072 22.4785 9.81466 22.1838C9.51922 21.8884 9.33788 21.6103 9.1847 21.2286C8.9671 20.6768 8.87585 19.7156 8.84364 18.6962C8.82073 17.971 8.82785 17.2409 8.83371 16.6408L8.83612 16.3838C8.8373 16.2463 8.83813 16.1178 8.83813 16.0004C8.83813 15.8126 8.83602 15.5963 8.83371 15.3599C8.82785 14.7596 8.82073 14.0292 8.84364 13.3037C8.87585 12.284 8.96711 11.3228 9.18466 10.7723C9.33805 10.39 9.51945 10.1101 9.8141 9.81753C10.1103 9.5234 10.3888 9.33989 10.77 9.18693C11.3206 8.96939 12.2817 8.87813 13.3013 8.84593C14.0269 8.82301 14.7572 8.83013 15.3575 8.83599C15.5939 8.8383 15.8102 8.84041 15.998 8.84041C16.1858 8.84041 16.402 8.8383 16.6385 8.83599C17.2387 8.83013 17.9691 8.82301 18.6946 8.84593C19.7143 8.87813 20.6754 8.96939 21.226 9.18694C21.6082 9.34032 21.8887 9.5223 22.1813 9.81696C22.4768 10.1125 22.6581 10.3906 22.8113 10.7724C23.0289 11.323 23.1201 12.2841 23.1523 13.3037C23.1626 13.6294 23.1668 13.956 23.1678 14.2714L23.3916 14.0477C23.3955 14.5192 23.3911 14.9729 23.3872 15.3674C23.3849 15.6022 23.3828 15.8161 23.3828 16.0004C23.3828 16.1841 23.3849 16.3972 23.3872 16.6312C23.393 17.2311 23.4002 17.9679 23.3771 18.6969L23.1352 19.1094C23.1094 19.6239 23.0654 20.1101 22.9937 20.5194L23.2383 20.4184C23.3177 19.9058 23.3579 19.3041 23.3771 18.6969L24.9994 15.9306L24.9997 15.5458C25.0009 14.5243 25.002 13.5086 24.9515 12.4876L25.1656 12.2736C25.0943 10.8047 24.7567 9.46169 23.6478 8.35274C22.5365 7.24149 21.1957 6.90616 19.7269 6.83491C18.6292 6.77329 17.5401 6.77451 16.4535 6.77573C16.3023 6.7759 16.1513 6.77607 16.0002 6.77607C15.8489 6.77607 15.6975 6.7759 15.5462 6.77573C14.4581 6.77451 13.3693 6.7733 12.2735 6.83491C10.8046 6.90617 9.46164 7.24379 8.35271 8.35274C7.24148 9.46399 6.90616 10.8048 6.83491 12.2736C6.77329 13.3714 6.77451 14.4605 6.77573 15.5471C6.7759 15.6983 6.77607 15.8493 6.77607 16.0004C6.77607 16.1514 6.7759 16.3025 6.77573 16.4537C6.77451 17.5407 6.77329 18.6313 6.83491 19.7272C6.90617 21.1961 7.24378 22.5391 8.35271 23.6481C9.46398 24.7593 10.8048 25.0947 12.2737 25.1659L12.6482 24.7913ZM24.9515 12.4876L23.3916 14.0477C23.3812 12.8006 23.3124 11.4277 23.0203 10.6891C22.856 10.2793 22.6579 9.97533 22.3404 9.65786C22.0252 9.3404 21.719 9.14226 21.3092 8.9779C20.2912 8.57534 18.0687 8.59701 16.631 8.61103C16.3962 8.61332 16.1823 8.61541 15.998 8.61541C15.8137 8.61541 15.5998 8.61332 15.365 8.61103C13.9272 8.59701 11.7047 8.57534 10.6867 8.9779C10.277 9.14226 9.97302 9.34265 9.65556 9.65786C9.3381 9.97308 9.13997 10.2793 8.97562 10.6891C8.57306 11.7071 8.59473 13.9296 8.60875 15.3674C8.61104 15.6022 8.61313 15.8161 8.61313 16.0004C8.61313 16.1847 8.61104 16.3986 8.60875 16.6334C8.59473 18.0707 8.57306 20.2918 8.97562 21.3117C9.13997 21.7215 9.3381 22.0255 9.65556 22.3429C9.97077 22.6604 10.277 22.8585 10.6867 23.0229C11.4254 23.315 12.7983 23.3837 14.0454 23.3941L12.6482 24.7913L12.2853 24.9412C10.8443 24.8714 9.56775 24.5449 8.51181 23.489C7.45812 22.4352 7.1294 21.1564 7.05961 19.7154C6.99833 18.6262 6.99953 17.5422 7.00073 16.4542C7.0009 16.303 7.00107 16.1518 7.00107 16.0004C7.00107 15.849 7.0009 15.6978 7.00073 15.5466C6.99953 14.4591 6.99833 13.3766 7.05961 12.2854C7.1294 10.8444 7.45587 9.5678 8.51181 8.51184C9.5655 7.45813 10.8443 7.1294 12.2853 7.05961C13.3744 6.99833 14.4566 6.99953 15.5456 7.00073C15.697 7.0009 15.8485 7.00107 16.0002 7.00107C16.1516 7.00107 16.3029 7.0009 16.454 7.00073C17.5415 6.99953 18.624 6.99833 19.7152 7.05961C21.1561 7.1294 22.4327 7.45587 23.4887 8.51184C24.5423 9.56555 24.8711 10.8444 24.9409 12.2854C24.9446 12.3528 24.9482 12.4203 24.9515 12.4876ZM20.8408 16.0004C20.8408 16.2173 20.8266 16.4309 20.7991 16.6402L20.526 16.9133C20.5849 16.6183 20.6158 16.313 20.6158 16.0004C20.6158 13.4449 18.5534 11.3825 15.998 11.3825C13.4426 11.3825 11.3802 13.4449 11.3802 16.0004C11.3802 18.5559 13.4426 20.6183 15.998 20.6183C16.3106 20.6183 16.6159 20.5874 16.9109 20.5285L16.6378 20.8016C16.4285 20.8291 16.2149 20.8433 15.998 20.8433C13.3183 20.8433 11.1552 18.6801 11.1552 16.0004C11.1552 13.3207 13.3183 11.1575 15.998 11.1575C18.6777 11.1575 20.8408 13.3207 20.8408 16.0004ZM16.9109 20.5285C18.7322 20.1651 20.1626 18.7346 20.526 16.9133L16.9109 20.5285ZM13.2218 16.0004C13.2218 17.5288 14.4697 18.7767 15.998 18.7767C17.5263 18.7767 18.7742 17.5288 18.7742 16.0004C18.7742 14.472 17.5263 13.2241 15.998 13.2241C14.4697 13.2241 13.2218 14.472 13.2218 16.0004ZM12.9968 16.0004C12.9968 17.653 14.3454 19.0017 15.998 19.0017C17.6506 19.0017 18.9992 17.653 18.9992 16.0004C18.9992 14.3478 17.6506 12.9991 15.998 12.9991C14.3454 12.9991 12.9968 14.3478 12.9968 16.0004Z" fill="white"/>
<path d="M25.2247 15.5464L25.1656 12.2736L24.9515 12.4876C25.002 13.5086 25.0009 14.5243 24.9997 15.5458L24.9994 15.9306L25.2247 15.5464Z" fill="white"/>
<path d="M23.3872 16.6312C23.3849 16.3972 23.3828 16.1841 23.3828 16.0004C23.3828 15.8161 23.3849 15.6022 23.3872 15.3674C23.3911 14.9729 23.3955 14.5192 23.3916 14.0477L23.1678 14.2714C23.1691 14.6587 23.1655 15.029 23.1622 15.3599C23.1599 15.5963 23.1578 15.8126 23.1578 16.0004C23.1578 16.1876 23.1599 16.4031 23.1622 16.6386C23.1681 17.2391 23.1752 17.97 23.152 18.6959C23.1476 18.8351 23.1421 18.9732 23.1352 19.1094L23.3771 18.6969C23.4002 17.9679 23.393 17.2311 23.3872 16.6312Z" fill="white"/>
<path d="M22.3381 22.3407C22.6556 22.0255 22.8537 21.7193 23.0181 21.3095C23.1131 21.0703 23.1847 20.7647 23.2383 20.4184L22.9937 20.5194C22.9456 20.7945 22.885 21.0349 22.8092 21.2259C22.6558 21.6083 22.4738 21.8889 22.179 22.1816C21.8835 22.4771 21.6054 22.6585 21.2236 22.8117C21.1287 22.8493 21.0216 22.8833 20.9042 22.9138L20.7474 23.1811C20.9583 23.137 21.1474 23.084 21.307 23.0206C21.7167 22.8563 22.0207 22.6581 22.3381 22.3407Z" fill="white"/>
<path d="M19.7269 25.1659L19.7152 24.9412L20.7474 23.1811C19.6115 23.4188 17.8408 23.4015 16.6287 23.3897C16.4178 23.3877 16.2237 23.3858 16.0529 23.3854L12.6482 24.7913L12.2737 25.1659L19.7269 25.1659Z" fill="white"/>
<path d="M15.365 23.3898C15.5998 23.3875 15.8137 23.3854 15.998 23.3854L16.0529 23.3854L16.5884 23.1643C16.3715 23.1622 16.1725 23.1604 15.998 23.1604C15.8102 23.1604 15.5939 23.1625 15.3575 23.1648L15.1265 23.167C14.8578 23.1694 14.5685 23.1714 14.2691 23.1704L14.0454 23.3941C14.5169 23.398 14.9705 23.3936 15.365 23.3898Z" fill="white"/>
<path d="M16.9109 20.5285L16.6378 20.8016C18.8045 20.5171 20.5146 18.8069 20.7991 16.6402L20.526 16.9133C20.1626 18.7346 18.7322 20.1651 16.9109 20.5285Z" fill="white"/>
</svg>
