<svg width="32" height="32" viewBox="0 0 32 32" fill="none" xmlns="http://www.w3.org/2000/svg">
<rect width="32" height="32" rx="16" fill="#1C63EC"/>
<path fill-rule="evenodd" clip-rule="evenodd" d="M16.7524 8.50621C18.4996 6.65678 21.3328 6.65678 23.0804 8.50621L23.0803 8.50632C24.8268 10.3558 24.8268 13.3542 23.0801 15.2035L20.3116 18.1348C18.5641 19.9843 15.7304 19.9843 13.9833 18.1348C13.6678 17.7997 13.4088 17.4267 13.207 17.0311L13.9444 16.2496C14.1697 16.0112 14.4647 15.8724 14.7801 15.854C14.9071 16.1705 15.0915 16.4611 15.328 16.7105C15.8144 17.2254 16.4596 17.5082 17.1478 17.5082C17.835 17.5082 18.4812 17.2254 18.9672 16.7102L21.7353 13.78C22.2213 13.2662 22.4885 12.5822 22.4885 11.8548C22.4885 11.1264 22.2213 10.4434 21.7353 9.92956C21.2494 9.41465 20.6032 9.13167 19.9159 9.13167C19.2287 9.13167 18.5826 9.41465 18.0966 9.92956L16.6817 11.4266C16.1 11.2218 15.4855 11.1155 14.8537 11.1155C14.653 11.1155 14.4533 11.1253 14.2556 11.1481L16.7524 8.50621ZM15.3293 20.561C15.9243 20.7746 16.5449 20.883 17.1778 20.883L17.1786 20.8833C17.3681 20.8833 17.5559 20.8734 17.7418 20.855L15.2492 23.4936C13.502 25.3432 10.6695 25.3432 8.92238 23.4936C7.17431 21.6429 7.17431 18.6447 8.92238 16.7952L11.6905 13.8639C13.4377 12.0144 16.2714 12.0144 18.0185 13.8639C18.3344 14.1989 18.594 14.5717 18.7958 14.9685L18.0595 15.7491C17.8342 15.9875 17.5387 16.1274 17.2223 16.1447C17.0947 15.8282 16.91 15.5376 16.6733 15.2872C16.1875 14.7734 15.5423 14.4904 14.8541 14.4904C14.1669 14.4904 13.5218 14.7734 13.0353 15.2872L10.2672 18.2174C9.78078 18.7322 9.51344 19.4163 9.51344 20.1437C9.51344 20.8711 9.78078 21.5551 10.2672 22.069C10.7536 22.584 11.3988 22.8669 12.086 22.8669C12.7731 22.8669 13.4193 22.5839 13.9047 22.069L15.3293 20.561Z" fill="white"/>
</svg>
