<svg viewBox="0 0 72 72" fill="none" xmlns="http://www.w3.org/2000/svg">
<path fill-rule="evenodd" clip-rule="evenodd" d="M36.0945 0C45.6029 0 54.5514 3.67787 61.3283 10.3829C68.2098 17.2 72 26.2992 72 35.9998C72 45.6362 68.2428 54.6937 61.4094 61.5046C54.6246 68.274 45.6359 72 36.0868 72H35.9108C30.4634 71.9759 25.2325 70.7547 20.37 68.3781C19.1441 67.7837 17.7343 67.7597 16.4927 68.3299C12.1586 70.3134 7.25569 71.5418 1.92884 71.9916C1.28794 72.0476 0.663212 71.7507 0.3028 71.2124C-0.0576205 70.674 -0.0978453 69.9834 0.190484 69.4053L5.47772 58.8858C6.1667 57.5044 6.11082 55.8906 5.30952 54.5574C1.96904 49.0091 0.190982 42.6244 0.174777 36.1122C0.142877 26.5404 3.80407 17.5221 10.4849 10.7207C17.1567 3.91878 26.0967 0.11259 35.6458 0H36.0945ZM30.772 49.9935L28.1751 52.5247L14.9875 39.6709L28.1751 26.8172L30.772 29.3483L22.0528 37.8326H44.2063C47.5141 37.8326 50.1981 35.2167 50.1981 31.9785C50.1981 28.7686 47.4996 26.1384 44.2063 26.1384H42.5815V22.476H44.2063C49.5887 22.476 53.9556 26.7323 53.9556 31.9785C53.9556 37.2246 49.5887 41.5092 44.2063 41.5092H22.0528L30.772 49.9935Z" fill="#2F2F2F"/>
</svg>
