<svg viewBox="0 0 32 32" fill="none" xmlns="http://www.w3.org/2000/svg">
<circle cx="16" cy="16" r="16" fill="#18A0FB"/>
<path d="M15.9762 16.6164L27 12.453L15.8333 9L5 12.502L15.9762 16.6164Z" fill="white"/>
<path d="M9.44937 20.5217V15.0146L15.9891 17.3311L22.5179 15.0034V20.5217H9.44937Z" fill="white"/>
<path d="M22.5179 20.5218C22.5179 20.7159 22.3489 20.9081 22.0205 21.0875C21.6921 21.2668 21.2108 21.4298 20.6041 21.567C19.9973 21.7043 19.277 21.8132 18.4842 21.8875C17.6914 21.9617 16.8417 22 15.9836 22C15.1255 22 14.2759 21.9617 13.4831 21.8875C12.6903 21.8132 11.97 21.7043 11.3632 21.567C10.7564 21.4298 10.2751 21.2668 9.94676 21.0875C9.61838 20.9081 9.44937 20.7159 9.44937 20.5218L15.9836 20.5218H22.5179Z" fill="white"/>
</svg>
