<svg width="24" height="24" viewBox="0 0 24 24" fill="none" xmlns="http://www.w3.org/2000/svg">
<path d="M3.14212 11.4769C5.01096 10.4557 7.09709 9.60328 9.04627 8.74654C12.3996 7.34327 15.7663 5.96432 19.1669 4.68053C19.8285 4.4618 21.0174 4.24792 21.1339 5.22067C21.0701 6.59763 20.8075 7.96654 20.6274 9.33544C20.1703 12.3458 19.6419 15.3458 19.1267 18.3463C18.9491 19.3457 17.6872 19.8631 16.8797 19.2235C14.9392 17.9231 12.9838 16.6353 11.068 15.3047C10.4405 14.6721 11.0224 13.7636 11.5829 13.3118C13.1811 11.7492 14.8761 10.4215 16.3909 8.77806C16.7995 7.79918 15.5922 8.62415 15.194 8.87695C13.0059 10.3729 10.8714 11.9601 8.56456 13.2748C7.38621 13.9184 6.01282 13.3684 4.835 13.0093C3.77896 12.5755 2.23144 12.1385 3.14201 11.4771L3.14212 11.4769Z" fill="#1C63EC"/>
</svg>
