<svg viewBox="0 0 26 26" fill="none" xmlns="http://www.w3.org/2000/svg">
<path d="M13 0.5C6.10526 0.5 0.5 6.10526 0.5 13C0.5 19.8947 6.10526 25.5 13 25.5C19.8947 25.5 25.5 19.8947 25.5 13C25.5 6.10526 19.8947 0.5 13 0.5ZM13 7.6579C15.158 7.6579 16.9211 9.42105 16.9211 11.579C16.9211 13.7369 15.1579 15.5001 13 15.5001C10.8421 15.5001 9.0789 13.7369 9.0789 11.579C9.0789 9.42105 10.8421 7.6579 13 7.6579ZM6.15789 20.5789V20C6.15789 18.3421 7.49995 16.9738 9.18412 16.9738H16.8157C18.4736 16.9738 19.8419 18.3158 19.8419 20V20.5789C18.0261 22.2105 15.6313 23.2105 12.9998 23.2105C10.3686 23.2105 7.97397 22.2105 6.15818 20.5789H6.15789Z" fill="#2F2F2F"/>
</svg>
