<svg width="67" height="68" viewBox="0 0 67 68" fill="none" xmlns="http://www.w3.org/2000/svg">
<path d="M32.2971 18.1204C32.2844 18.0332 32.2645 17.9672 32.2645 17.8853C32.265 17.934 32.2645 17.8365 32.2645 17.8853C32.2605 17.4737 32.2738 16.9096 32.2372 16.5067C31.9233 13.0536 30.4331 9.94022 28.1706 7.57063C25.453 4.72436 21.6211 2.95117 17.3751 2.95117C9.13285 2.95117 2.45117 9.63285 2.45117 17.8751C2.45117 22.5392 4.59076 26.7036 7.94197 29.4403C10.2581 31.3317 12.8025 32.6459 16.3203 32.7624C16.6651 32.7738 17.2036 32.7624 17.2036 32.7624C17.3089 32.7624 17.4113 32.7749 17.5094 32.7985C25.6081 32.7271 32.1654 26.2184 32.2971 18.1204Z" fill="#1C63EC"/>
<path d="M59.1332 29.4438C62.4869 26.7071 64.6283 22.5412 64.6283 17.8751C64.6283 9.63285 57.9466 2.95117 49.7043 2.95117C45.4601 2.95117 41.6296 4.72289 38.9122 7.56709C36.6458 9.9393 35.0175 12.6808 34.8414 16.5162C34.8197 16.9893 34.8414 17.7288 34.8414 17.7288C34.8414 17.8643 34.8207 17.995 34.7823 18.1178C34.9112 26.2032 41.47 32.7266 49.5692 32.7985C49.6673 32.7749 49.7697 32.7624 49.875 32.7624H50.7947C53.96 32.5413 56.8178 31.3332 59.1332 29.4438Z" fill="#1C63EC"/>
<path d="M37.9691 59.4689C40.7017 62.9416 44.9426 65.1717 49.7043 65.1717C57.9466 65.1717 64.6283 58.4901 64.6283 50.2478C64.6283 46.045 62.891 42.248 60.0954 39.5357C57.6632 37.1759 54.8034 35.5094 50.8427 35.3666C50.4651 35.353 49.875 35.3666 49.875 35.3666C49.7613 35.3666 49.651 35.352 49.5459 35.3247C41.4555 35.4088 34.908 41.9305 34.7822 50.0109C34.8207 50.1338 34.8414 50.2646 34.8414 50.4002C34.8414 50.4002 34.8195 51.136 34.8414 51.6067C34.995 54.9075 36.2347 57.2646 37.9691 59.4689Z" fill="#1C63EC"/>
<path d="M6.98013 39.5394C4.18682 42.2515 2.45117 46.047 2.45117 50.2478C2.45117 58.4901 9.13285 65.1717 17.3751 65.1717C22.1386 65.1717 26.3809 62.94 29.1133 59.465C30.8442 57.2639 32.0824 54.9116 32.2372 51.6162C32.2594 51.1419 32.2372 50.4002 32.2372 50.4002C32.2372 50.2636 32.2582 50.132 32.2972 50.0083C32.1701 41.9289 25.6226 35.4084 17.5327 35.3247C17.4276 35.352 17.3173 35.3666 17.2036 35.3666C17.2036 35.3666 16.6141 35.353 16.2367 35.3666C12.274 35.5093 9.41276 37.1776 6.98013 39.5394Z" fill="#1C63EC"/>
<path d="M17.5094 32.7985C18.0437 32.9271 18.4496 33.3851 18.5004 33.9456C18.5416 33.946 18.5828 33.9461 18.6241 33.9461C18.5828 33.9461 18.5416 33.9463 18.5005 33.9466C18.5039 33.9854 18.5057 34.0248 18.5057 34.0645C18.5057 34.6699 18.0925 35.1789 17.5327 35.3247C25.6226 35.4084 32.1701 41.9289 32.2972 50.0083C32.4633 49.4812 32.9557 49.0989 33.5374 49.0981C33.5387 49.0193 33.5393 48.9404 33.5393 48.8613C33.5393 48.9404 33.5399 49.0193 33.5411 49.0981C34.1239 49.0989 34.6169 49.4825 34.7822 50.0109C34.908 41.9305 41.4555 35.4088 49.5459 35.3247C48.9861 35.1789 48.5729 34.6699 48.5729 34.0645C48.5729 34.0248 48.5746 33.9854 48.5781 33.9466C48.5369 33.9463 48.4957 33.9461 48.4545 33.9461C48.4958 33.9461 48.537 33.946 48.5782 33.9456C48.6289 33.3851 49.0349 32.927 49.5692 32.7985C41.47 32.7266 34.9112 26.2032 34.7823 18.1178C34.6169 18.6469 34.1229 19.0309 33.5393 19.0309C32.9566 19.0309 32.4725 18.6761 32.2971 18.1204C32.1654 26.2184 25.6081 32.7271 17.5094 32.7985Z" fill="#1C63EC"/>
</svg>
